<?xml version="1.0" encoding="UTF-8"?>
<svg width="64" height="64" viewBox="0 0 64 64" fill="none" xmlns="http://www.w3.org/2000/svg">
  <!-- Background circle -->
  <circle cx="32" cy="32" r="30" fill="#4F46E5" stroke="#6366F1" stroke-width="2"/>
  
  <!-- World map/globe base -->
  <ellipse cx="32" cy="32" rx="18" ry="16" fill="#E0E7FF" stroke="#A5B4FC" stroke-width="1"/>
  
  <!-- Continent shapes -->
  <path d="M20 28 Q24 26 28 28 Q30 30 32 28 Q34 26 38 28 Q40 30 42 28 Q44 26 48 28" 
        stroke="#4F46E5" stroke-width="2" fill="none" stroke-linecap="round"/>
  <path d="M22 32 Q26 30 30 32 Q32 34 34 32 Q36 30 40 32 Q42 34 44 32 Q46 30 50 32" 
        stroke="#4F46E5" stroke-width="2" fill="none" stroke-linecap="round"/>
  <path d="M24 36 Q28 34 32 36 Q34 38 36 36 Q38 34 42 36 Q44 38 46 36 Q48 34 52 36" 
        stroke="#4F46E5" stroke-width="2" fill="none" stroke-linecap="round"/>
  
  <!-- Airplane -->
  <g transform="translate(32, 20)">
    <!-- Airplane body -->
    <path d="M-8 0 L8 0 L6 2 L-6 2 Z" fill="#EF4444"/>
    <!-- Airplane wings -->
    <path d="M-2 -1 L-2 -4 L2 -4 L2 -1 Z" fill="#EF4444"/>
    <path d="M-2 1 L-2 4 L2 4 L2 1 Z" fill="#EF4444"/>
    <!-- Airplane tail -->
    <path d="M-6 -2 L-8 -4 L-6 -6 L-4 -4 Z" fill="#EF4444"/>
  </g>
  
  <!-- AI/Technology elements -->
  <g transform="translate(32, 45)">
    <!-- Circuit board pattern -->
    <rect x="-6" y="-1" width="12" height="2" fill="#10B981" rx="1"/>
    <rect x="-4" y="-3" width="8" height="2" fill="#10B981" rx="1"/>
    <rect x="-2" y="1" width="4" height="2" fill="#10B981" rx="1"/>
    <!-- Connection dots -->
    <circle cx="-6" cy="0" r="1" fill="#10B981"/>
    <circle cx="6" cy="0" r="1" fill="#10B981"/>
    <circle cx="0" cy="-2" r="1" fill="#10B981"/>
    <circle cx="0" cy="2" r="1" fill="#10B981"/>
  </g>
  
  <!-- Sparkle effects -->
  <g fill="#FCD34D">
    <circle cx="16" cy="16" r="1"/>
    <circle cx="48" cy="16" r="1"/>
    <circle cx="16" cy="48" r="1"/>
    <circle cx="48" cy="48" r="1"/>
  </g>
</svg> 